<?xml version="1.0" encoding="UTF-8"?>
<svg id="Layer_2" data-name="Layer 2" xmlns="http://www.w3.org/2000/svg" xmlns:xlink="http://www.w3.org/1999/xlink" viewBox="0 0 174.14 36.9">
  <defs>
    <style>
      .cls-1 {
        fill: url(#linear-gradient);
      }
    </style>
    <linearGradient id="linear-gradient" x1="13.54" y1="3.07" x2="13.54" y2="30.27" gradientUnits="userSpaceOnUse">
      <stop offset="0" stop-color="#000"/>
      <stop offset=".96" stop-color="#000" stop-opacity=".09"/>
      <stop offset="1" stop-color="#000" stop-opacity="0"/>
    </linearGradient>
  </defs>
  <g id="Layer_1-2" data-name="Layer 1">
    <g>
      <path class="cls-1" d="M12.73,3.47L.22,19.63c-.36.46-.26,1.13.21,1.47l12.51,8.98c.36.26.84.26,1.2,0l12.51-8.98c.47-.34.57-1.01.21-1.47L14.36,3.47c-.41-.53-1.22-.53-1.63,0Z"/>
      <circle cx="13.54" cy="3.07" r="3.07"/>
      <path d="M52.42,21.43h-.63l-3.02,3.46v5.38h-8.47V4.49h8.47v9.21h.52l7.59-9.21h9.87l-8.88,10.06,8.36,15.73h-9.21l-4.6-8.84Z"/>
      <path d="M65.34,19.85c0-6.59,4.64-10.94,11.09-10.94s11.05,4.35,11.05,10.94-4.64,10.98-11.05,10.98c-7.18,0-11.09-4.57-11.09-10.98ZM80,19.85c0-2.43-1.58-3.72-3.57-3.72s-3.61,1.33-3.61,3.72,1.58,3.76,3.61,3.76,3.57-1.29,3.57-3.76Z"/>
      <path d="M90.06,9.46h8.18v2.95h.29c.52-1.77,2.58-3.5,5.49-3.5,2.73,0,4.57.96,5.82,3.83h.29c.52-1.84,2.65-3.83,6.12-3.83,3.98,0,7.18,2.03,7.18,8.1v13.26h-8.21v-11.68c0-1.69-.81-2.47-2.21-2.47-1.33,0-2.21.77-2.21,2.47v11.68h-8.18v-11.68c0-1.69-.81-2.47-2.17-2.47-1.29,0-2.21.77-2.21,2.47v11.68h-8.18V9.46Z"/>
      <path d="M141.21,30.82c-2.8,0-4.97-1.25-5.89-3.5h-.26v9.58h-8.1V9.46h8.1v2.95h.26c.92-2.28,3.09-3.5,5.89-3.5,5.42,0,9.21,4.53,9.21,10.94s-4.12,10.98-9.21,10.98ZM135.02,19.88c0,2.43,1.58,3.72,3.57,3.72s3.61-1.29,3.61-3.72-1.58-3.76-3.61-3.76-3.57,1.29-3.57,3.76Z"/>
      <path d="M163.64,30.82c-7.55,0-11.23-4.9-11.23-10.94s3.83-10.98,11.01-10.98,10.72,4.2,10.72,11.46v.7h-14.29c.18,2.28,1.69,3.24,3.61,3.24,1.58,0,2.54-.63,3.09-1.58h7.48c-.52,3.46-3.46,8.1-10.39,8.1ZM159.92,18.19h7.11c-.37-2.06-1.77-2.87-3.57-2.87s-3.17.81-3.54,2.87Z"/>
    </g>
  </g>
</svg>