<?xml version="1.0" encoding="UTF-8"?>
<svg id="Layer_2" data-name="Layer 2" xmlns="http://www.w3.org/2000/svg" xmlns:xlink="http://www.w3.org/1999/xlink" viewBox="0 0 32.63 30.27">
  <defs>
    <style>
      .cls-1 {
        fill: url(#linear-gradient);
      }
    </style>
    <linearGradient id="linear-gradient" x1="16.31" y1="3.07" x2="16.31" y2="30.27" gradientUnits="userSpaceOnUse">
      <stop offset="0" stop-color="#000"/>
      <stop offset=".96" stop-color="#000" stop-opacity=".09"/>
      <stop offset="1" stop-color="#000" stop-opacity="0"/>
    </linearGradient>
  </defs>
  <g id="Layer_1-2" data-name="Layer 1">
    <path class="cls-1" d="M15.5,3.47L2.99,19.63c-.36.46-.26,1.13.21,1.47l12.51,8.98c.36.26.84.26,1.2,0l12.51-8.98c.47-.34.57-1.01.21-1.47L17.13,3.47c-.41-.53-1.22-.53-1.63,0Z"/>
    <circle cx="16.31" cy="3.07" r="3.07"/>
    <path d="M31.63,11.2h-8.51l6.53,8.42c.36.46.26,1.13-.21,1.47l-12.51,8.98c-.36.26-.84.26-1.2,0L3.2,21.09c-.47-.34-.57-1.01-.21-1.47l6.53-8.42H1c-.71,0-1.19.72-.92,1.37.79,1.93,2.18,5.47,2.71,7.99.89,4.22.87,9.71.87,9.71h25.31s-.02-5.49.87-9.71c.53-2.52,1.92-6.06,2.71-7.99.27-.66-.21-1.37-.92-1.37Z"/>
  </g>
</svg>