<?xml version="1.0" encoding="UTF-8"?>
<svg id="Layer_2" data-name="Layer 2" xmlns="http://www.w3.org/2000/svg" xmlns:xlink="http://www.w3.org/1999/xlink" viewBox="0 0 176.91 36.9">
  <defs>
    <style>
      .cls-1 {
        fill: url(#linear-gradient-2);
      }

      .cls-2 {
        fill: #023047;
      }

      .cls-3 {
        fill: url(#Sky);
      }

      .cls-4 {
        fill: url(#linear-gradient);
      }
    </style>
    <linearGradient id="linear-gradient" x1="0" y1="20.74" x2="32.63" y2="20.74" gradientUnits="userSpaceOnUse">
      <stop offset="0" stop-color="#8ecae6"/>
      <stop offset=".16" stop-color="#84c6e2"/>
      <stop offset=".42" stop-color="#6bbbd8"/>
      <stop offset=".76" stop-color="#42abc8"/>
      <stop offset=".99" stop-color="#219ebc"/>
    </linearGradient>
    <linearGradient id="Sky" x1="16.31" y1="30.27" x2="16.31" y2="3.07" gradientUnits="userSpaceOnUse">
      <stop offset="0" stop-color="#cce0f4"/>
      <stop offset=".06" stop-color="#c2dcf2"/>
      <stop offset=".17" stop-color="#a9d2ee"/>
      <stop offset=".31" stop-color="#7fc2e7"/>
      <stop offset=".46" stop-color="#46abdd"/>
      <stop offset=".57" stop-color="#1e9cd7"/>
      <stop offset=".87" stop-color="#0075be"/>
      <stop offset=".99" stop-color="#005b97"/>
    </linearGradient>
    <linearGradient id="linear-gradient-2" x1="13.24" y1="3.07" x2="19.38" y2="3.07" gradientUnits="userSpaceOnUse">
      <stop offset="0" stop-color="#fb8500"/>
      <stop offset="1" stop-color="#ffb703"/>
    </linearGradient>
  </defs>
  <g id="Layer_1-2" data-name="Layer 1">
    <path class="cls-4" d="M1,11.2c-.71,0-1.19.72-.92,1.37.79,1.93,2.18,5.47,2.71,7.99.89,4.22.87,9.71.87,9.71h25.31s-.02-5.49.87-9.71c.53-2.52,1.92-6.06,2.71-7.99.27-.66-.21-1.37-.92-1.37H1Z"/>
    <path class="cls-3" d="M15.5,3.47L2.99,19.63c-.36.46-.26,1.13.21,1.47l12.51,8.98c.36.26.84.26,1.2,0l12.51-8.98c.47-.34.57-1.01.21-1.47L17.13,3.47c-.41-.53-1.22-.53-1.63,0Z"/>
    <circle class="cls-1" cx="16.31" cy="3.07" r="3.07"/>
    <g>
      <path class="cls-2" d="M55.19,21.43h-.63l-3.02,3.46v5.38h-8.47V4.49h8.47v9.21h.52l7.59-9.21h9.87l-8.88,10.06,8.36,15.73h-9.21l-4.6-8.84Z"/>
      <path class="cls-2" d="M68.11,19.85c0-6.59,4.64-10.94,11.09-10.94s11.05,4.35,11.05,10.94-4.64,10.98-11.05,10.98c-7.18,0-11.09-4.57-11.09-10.98ZM82.77,19.85c0-2.43-1.58-3.72-3.57-3.72s-3.61,1.33-3.61,3.72,1.58,3.76,3.61,3.76,3.57-1.29,3.57-3.76Z"/>
      <path class="cls-2" d="M92.82,9.46h8.18v2.95h.29c.52-1.77,2.58-3.5,5.49-3.5,2.73,0,4.57.96,5.82,3.83h.29c.52-1.84,2.65-3.83,6.12-3.83,3.98,0,7.18,2.03,7.18,8.1v13.26h-8.21v-11.68c0-1.69-.81-2.47-2.21-2.47-1.33,0-2.21.77-2.21,2.47v11.68h-8.18v-11.68c0-1.69-.81-2.47-2.17-2.47-1.29,0-2.21.77-2.21,2.47v11.68h-8.18V9.46Z"/>
      <path class="cls-2" d="M143.98,30.82c-2.8,0-4.97-1.25-5.89-3.5h-.26v9.58h-8.1V9.46h8.1v2.95h.26c.92-2.28,3.09-3.5,5.89-3.5,5.42,0,9.21,4.53,9.21,10.94s-4.12,10.98-9.21,10.98ZM137.79,19.88c0,2.43,1.58,3.72,3.57,3.72s3.61-1.29,3.61-3.72-1.58-3.76-3.61-3.76-3.57,1.29-3.57,3.76Z"/>
      <path class="cls-2" d="M166.41,30.82c-7.55,0-11.23-4.9-11.23-10.94s3.83-10.98,11.01-10.98,10.72,4.2,10.72,11.46v.7h-14.29c.18,2.28,1.69,3.24,3.61,3.24,1.58,0,2.54-.63,3.09-1.58h7.48c-.52,3.46-3.46,8.1-10.39,8.1ZM162.69,18.19h7.11c-.37-2.06-1.77-2.87-3.57-2.87s-3.17.81-3.54,2.87Z"/>
    </g>
  </g>
</svg>